<svg id="visual" viewBox="0 0 900 600" width="900" height="600" xmlns="http://www.w3.org/2000/svg" xmlns:xlink="http://www.w3.org/1999/xlink" version="1.1"><rect x="0" y="0" width="900" height="600" fill="#fff"></rect><path d="M603 600L599 525L533 450L615 375L603 300L657 225L591 150L574 75L564 0L900 0L900 75L900 150L900 225L900 300L900 375L900 450L900 525L900 600Z" fill="#008710"></path><path d="M610 600L702 525L706 450L623 375L630 300L655 225L636 150L665 75L628 0L900 0L900 75L900 150L900 225L900 300L900 375L900 450L900 525L900 600Z" fill="#057616"></path><path d="M709 600L645 525L740 450L658 375L736 300L689 225L719 150L723 75L654 0L900 0L900 75L900 150L900 225L900 300L900 375L900 450L900 525L900 600Z" fill="#0b6619"></path><path d="M738 600L710 525L767 450L756 375L737 300L782 225L749 150L723 75L738 0L900 0L900 75L900 150L900 225L900 300L900 375L900 450L900 525L900 600Z" fill="#0f561a"></path><path d="M796 600L765 525L828 450L750 375L763 300L762 225L782 150L822 75L808 0L900 0L900 75L900 150L900 225L900 300L900 375L900 450L900 525L900 600Z" fill="#12461a"></path><path d="M839 600L825 525L829 450L851 375L827 300L846 225L829 150L869 75L832 0L900 0L900 75L900 150L900 225L900 300L900 375L900 450L900 525L900 600Z" fill="#133718"></path></svg>